<svg width="78" height="39" viewBox="0 0 78 39" fill="none" xmlns="http://www.w3.org/2000/svg">
<g clip-path="url(#clip0_1707_13446)">
<path d="M18.9413 0C22.4195 0 25.6312 0.951584 28.6315 2.7295C29.2676 3.10714 29.2933 3.38383 28.8907 3.98394C27.6185 5.88524 26.396 7.82206 25.1882 9.76823C24.894 10.2431 24.6991 10.2898 24.1991 10.0038C17.3878 6.10397 9.10025 10.5048 8.38695 18.4316C7.99353 22.8025 9.6481 26.3191 13.2569 28.7064C16.8271 31.0676 20.5756 31.0602 24.2782 28.927C24.8315 28.6092 25.0227 28.7307 25.3224 29.2C26.5376 31.1032 27.7546 33.0082 29.0451 34.8609C29.5066 35.5227 29.3853 35.777 28.7528 36.1752C19.866 41.7575 8.18472 38.813 2.7651 29.5982C-4.08481 17.953 2.40661 2.99497 15.474 0.319687C16.6175 0.0841283 17.7775 0.00560855 18.9413 0Z" fill="#0057CD"/>
<path d="M54.4923 19.5507C54.3949 15.3798 52.505 12.1848 48.5432 10.6294C45.0043 9.23658 41.344 9.13189 37.7573 10.405C34.1687 11.6782 31.7843 14.1796 30.957 18.0663C30.8283 18.6702 30.9607 18.8721 31.5582 18.9861C33.4812 19.3544 35.3913 19.7881 37.3051 20.1976C37.7077 20.2836 38.0257 20.3696 38.1526 19.7545C38.8879 16.1725 42.8442 15.6397 45.0172 16.8474C46.0871 17.44 46.657 18.5468 46.464 19.6274C46.3096 20.4911 45.6312 20.9304 44.2965 21.1566C41.7338 21.5904 39.1269 21.7979 36.612 22.4821C32.869 23.4991 30.6133 26.2024 30.3283 29.8461C30.0636 33.2318 31.9571 36.496 35.0181 37.9374C39.2703 39.9378 43.688 39.0143 47.1608 35.2771C47.1608 36.1277 47.192 36.8064 47.1516 37.4812C47.1185 38.0197 47.3189 38.1618 47.8281 38.1561C49.8504 38.13 51.8708 38.1281 53.8912 38.1561C54.4096 38.1636 54.564 38.0159 54.5622 37.4812C54.5365 31.5044 54.6339 25.5238 54.4923 19.5507ZM46.4897 27.4307C46.4419 31.1716 43.9086 33.43 40.6675 32.6186C39.3071 32.2765 38.5736 31.4259 38.4945 30.1023C38.4136 28.7095 39.0148 27.6999 40.3329 27.2157C41.7191 26.7072 43.2045 26.6661 44.6385 26.3782C44.8186 26.3427 45.0025 26.3277 45.1826 26.2959C46.0663 26.1314 46.502 26.5097 46.4897 27.4307Z" fill="#0057CD"/>
<path d="M57.6765 19.4189C57.6765 13.5038 57.6912 7.58863 57.6581 1.67348C57.6545 0.921932 57.8677 0.749936 58.5718 0.764893C60.7154 0.81163 62.859 0.817239 65.0026 0.763023C65.7508 0.744328 65.9696 0.920062 65.9659 1.71648C65.9347 10.9631 65.9457 20.2097 65.9457 29.4564C65.9457 32.1017 65.9255 34.749 65.9604 37.3943C65.9677 38.0206 65.7747 38.1683 65.1883 38.159C62.984 38.1253 60.7779 38.1178 58.5737 38.1627C57.8769 38.1758 57.6526 38.0169 57.6563 37.2579C57.6912 31.3109 57.6747 25.3659 57.6747 19.4189H57.6765Z" fill="#0057CD"/>
<path d="M73.9191 38.1451C71.6781 38.1451 69.8581 36.2905 69.8342 33.9854C69.8103 31.6896 71.7314 29.7341 73.978 29.764C76.2025 29.7939 78.0225 31.7083 78.0004 33.9966C77.9784 36.3223 76.1877 38.1432 73.9191 38.1451Z" fill="#0057CD"/>
</g>
<defs>
<clipPath id="clip0_1707_13446">
<rect width="78" height="39" fill="white"/>
</clipPath>
</defs>
</svg>
