<svg width="24" height="24" viewBox="0 0 24 24" fill="none" xmlns="http://www.w3.org/2000/svg">
<g clip-path="url(#clip0_2231_51157)">
<path d="M3.02263 4.71506C3.11284 4.42749 3.29155 4.21938 3.5351 4.04329C3.67773 3.93981 3.73468 3.98898 3.81135 4.09361C3.82995 4.11247 3.84912 4.13134 3.86772 4.15021C3.90493 4.22453 3.96075 4.28056 4.03178 4.32172C4.03291 4.44178 4.1248 4.49209 4.20486 4.55098L4.2043 4.55041C4.24432 4.63159 4.28435 4.62988 4.32381 4.54984C4.45517 4.31257 4.58146 4.07245 4.72015 3.83976C4.75679 3.77859 4.76581 3.64938 4.88251 3.69112C5.10633 3.77116 5.33804 3.72599 5.56355 3.75458C5.78229 3.78202 5.87418 4.08217 5.73662 4.2817C5.69998 4.3343 5.65488 4.38118 5.61428 4.43092C5.48518 4.41891 5.49928 4.58814 5.39554 4.60815C5.32225 4.6173 5.2422 4.61787 5.24783 4.72764C5.31098 4.69848 5.41189 4.81854 5.44684 4.67619C5.48462 4.66875 5.52183 4.66189 5.5596 4.65446C5.67066 4.69791 5.85558 4.48523 5.87926 4.66818C5.90745 4.88772 5.99878 5.15186 5.79864 5.35825C5.74226 5.41656 5.64191 5.41885 5.61203 5.51032C5.56975 5.5229 5.51111 5.50632 5.50097 5.5755L5.50153 5.57436C5.45981 5.58751 5.39949 5.56292 5.38483 5.6321C5.1768 5.78475 5.39949 5.80991 5.45981 5.84135C6.23612 6.24956 7.04852 6.57601 7.8891 6.80984C8.76407 7.05339 9.65313 7.25464 10.5726 7.23692C10.6854 7.23463 10.7903 7.22262 10.89 7.16717C11.6404 6.75038 12.3931 6.33817 13.1412 5.91682C13.2697 5.84478 13.3836 5.85221 13.5093 5.89852C13.8329 6.0163 14.1571 6.13464 14.4824 6.24784C14.6216 6.29644 14.7615 6.35075 14.9148 6.32159C14.9249 6.34446 14.9351 6.3679 14.9452 6.39077C14.9949 6.34789 15.0326 6.29644 15.005 6.22898C14.9763 6.15865 14.9227 6.17466 14.8714 6.20496C14.8297 6.16266 14.788 6.12092 14.7457 6.07861C14.7406 6.00372 14.6949 5.97685 14.6273 5.97742C14.404 5.80133 14.1802 5.62581 13.957 5.44972C13.9395 5.39312 13.9564 5.29707 13.8442 5.34796C13.6271 5.24448 13.7484 5.04895 13.7388 4.89916C13.7179 4.57614 13.6125 4.43492 13.3193 4.50581C13.1716 4.54126 13.029 4.52011 12.8886 4.55555C12.8649 4.50639 12.8221 4.49381 12.7736 4.49209C12.7736 4.45722 12.7736 4.42292 12.7736 4.38804C13.4045 3.89922 14.0894 3.49502 14.7564 3.06165C14.8573 2.9959 14.9627 2.98504 15.0715 3.02621C15.5519 3.20858 16.0305 3.39668 16.512 3.57563C16.6467 3.62594 16.6163 3.83576 16.7843 3.84319C16.8192 3.84491 16.8536 3.84891 16.8886 3.85234C17.0943 3.89636 17.2995 3.94038 17.5053 3.98498C18.2134 4.19994 18.939 4.34287 19.6629 4.48523C19.9448 4.54069 20.1607 4.60587 20.2289 4.9306C20.2734 5.14442 20.3614 5.34967 20.4403 5.55492C20.5029 5.71786 20.42 5.72701 20.3027 5.70242C20.1167 5.66355 19.9216 5.64411 19.7491 5.57036C19.4949 5.4623 19.3286 5.51433 19.2079 5.76245C19.1854 5.80876 19.1273 5.83735 19.0856 5.87451C19.0455 5.86422 19.0309 5.88137 19.0376 5.92139C18.8279 6.25928 18.4564 6.27185 18.1334 6.37248C17.9355 6.43365 17.7258 6.46281 17.5189 6.48625C17.3757 6.50226 17.3458 6.5863 17.4315 6.6612C17.5769 6.78869 17.5222 6.91847 17.4856 7.05397C17.3244 7.64684 17.1637 8.24028 16.9945 8.83087C16.9602 8.95093 16.954 9.095 16.7397 9.07614C16.5886 9.06299 16.428 9.15675 16.2628 9.20534C16.424 9.63013 16.5638 10.0566 16.6721 10.494C16.6602 10.534 16.685 10.5472 16.716 10.5552L16.7144 10.5535C16.7566 10.6855 16.7989 10.8176 16.8418 10.9502C16.8756 11.0434 16.8981 11.1429 16.9455 11.2287C17.2223 11.7301 17.0069 12.2092 16.8756 12.6854C16.7025 13.3114 16.5029 13.9295 16.3152 14.5515C16.234 14.5543 16.1822 14.5972 16.1534 14.6721C16.0254 14.5864 15.8873 14.5126 15.7723 14.4126C15.597 14.2599 15.7683 14.077 15.7796 13.9197C15.8039 13.5796 15.8507 13.2383 15.8788 12.8964C15.9189 12.8832 15.9386 12.8529 15.9211 12.8152C15.9132 12.7975 15.8788 12.7786 15.8608 12.7826C15.8005 12.7963 15.8259 12.8541 15.8151 12.8935C15.6488 13.1765 15.5479 13.4887 15.429 13.7922C15.3748 13.9306 15.3303 13.9312 15.2463 13.83C15.2401 13.8225 15.2333 13.8163 15.2266 13.8094C14.7739 13.3823 14.762 13.3023 15.0597 12.6065C15.0992 12.5145 15.1606 12.431 15.1544 12.3235C15.2299 12.3081 15.2835 12.2852 15.1939 12.2103C14.8866 12.1789 14.9475 12.5362 14.7609 12.6431C14.7192 12.6671 14.6543 12.7603 14.625 12.8375C14.5269 12.8295 14.4311 12.7391 14.3307 12.83C14.3155 12.8272 14.3065 12.818 14.3037 12.8026C14.3003 12.5613 14.351 12.3121 14.1949 12.0948C14.1943 11.9993 14.1937 11.9039 14.1932 11.8084C14.2388 11.7992 14.2856 11.7889 14.2873 11.7295C14.2896 11.6529 14.2343 11.6443 14.1774 11.6397C14.1498 11.642 14.1007 11.638 14.0979 11.6483C13.9919 11.985 13.8899 12.3229 13.7873 12.6608C13.7405 12.6894 13.688 12.7128 13.6869 12.7809C13.6785 12.7963 13.6739 12.8135 13.6739 12.8312C13.6176 12.8884 13.5612 12.9455 13.5048 13.0027C13.1231 13.3166 12.826 13.7133 12.5024 14.0821C12.463 14.1267 12.3869 14.1318 12.3778 14.2027C12.3164 14.3314 12.0633 14.2696 12.0971 14.4932L12.0965 14.4937C12.0334 14.5063 12.0446 14.5624 12.0339 14.6052C11.5891 15.006 11.2069 15.4657 10.8292 15.9282C10.6166 16.1889 10.5884 16.2003 10.3477 15.9471C9.82452 15.3953 9.85947 15.636 10.275 15.0157C10.5112 14.6635 10.7784 14.3325 11.0316 13.9918C11.0637 13.9803 11.0902 13.9655 11.0778 13.9232C11.0874 13.9072 11.0936 13.8894 11.0958 13.8706C11.1528 13.8037 11.2745 13.7745 11.2379 13.627C11.1223 13.6728 11.0191 13.6991 10.9656 13.8065C10.8168 13.9443 10.6685 14.0815 10.5196 14.2193C10.4802 14.2073 10.4678 14.2313 10.461 14.2633L10.4616 14.2628C10.43 14.2696 10.4063 14.2828 10.4176 14.3222C10.2366 14.4926 10.059 14.667 9.87357 14.8316C9.7315 14.958 9.58943 15.0346 9.55447 14.7413C9.55053 14.707 9.52798 14.6738 9.50937 14.6435C9.20945 14.1599 9.4654 13.85 9.8279 13.5647C9.92149 13.4915 9.9914 13.388 10.0726 13.2983C10.1047 13.2908 10.1256 13.2748 10.1149 13.2371C10.191 13.1496 10.2665 13.0622 10.3449 12.9718C10.2338 12.9204 10.1684 12.9644 10.1244 13.0604C10.0562 13.0593 10.0038 13.0867 9.96884 13.1468C9.94573 13.1748 9.92205 13.2028 9.89894 13.2308C9.8544 13.2428 9.79464 13.2245 9.77942 13.2931C9.7439 13.3286 9.70782 13.3635 9.6723 13.3989C9.6272 13.4098 9.56913 13.3989 9.55391 13.4647C9.53812 13.4738 9.52234 13.4829 9.50712 13.4927C9.40395 13.5618 9.29852 13.7191 9.19479 13.6688C9.09218 13.619 9.1463 13.4229 9.10459 13.3109C8.92305 12.8266 9.16604 12.5699 9.54602 12.3652C9.61874 12.3258 9.68076 12.2658 9.77716 12.1937C9.57928 12.1137 9.48006 12.1977 9.37012 12.2486C9.29852 12.2818 9.21621 12.3698 9.14461 12.3098C9.06963 12.2469 9.09895 12.1263 9.11755 12.0411C9.21452 11.6003 9.38365 11.1995 9.78731 10.9497C9.85778 10.9497 9.89837 10.9171 9.90232 10.8433C9.90627 10.805 9.92713 10.7839 9.9649 10.7799C10.0106 10.7781 10.05 10.7656 10.0698 10.7181C10.2428 10.534 10.4103 10.3442 10.5918 10.1693C10.6961 10.0686 10.717 10.0263 10.571 9.93714C10.0917 9.64442 9.61423 9.34999 9.11586 9.091C8.9969 9.02926 8.87964 9.00467 8.74716 9.00524C7.86091 9.00867 6.9741 9.00753 6.08785 9.00639C6.01682 9.00639 5.93056 9.03726 5.88264 8.95722C5.82457 8.85945 5.96213 8.84974 5.97059 8.77884C6.03711 8.77427 6.06812 8.73653 6.0715 8.67136L6.0777 8.66507C6.09405 8.6462 6.1104 8.62791 6.12619 8.60904C6.29983 8.39922 6.47347 8.18883 6.64655 7.97901C6.69165 7.97043 6.73506 7.95957 6.70743 7.89611L6.71758 7.88353C6.79256 7.90869 6.79482 7.85437 6.80102 7.80463C6.86247 7.72974 6.92336 7.65427 6.98481 7.57938C7.05472 7.5748 7.08403 7.53364 7.08403 7.46618C7.22272 7.17403 7.41327 7.1523 7.69742 7.28494C8.08191 7.46446 8.49008 7.59024 8.8881 7.73946C8.90557 7.74575 8.92361 7.75089 8.94166 7.75604C8.94842 7.78863 8.96139 7.81149 8.99972 7.79834C9.06343 7.85723 9.14067 7.8721 9.22298 7.87038C9.35828 7.97672 9.49528 7.93327 9.62551 7.86466C9.84031 7.75089 10.0506 7.62854 10.2637 7.46332H9.79295C9.77153 7.401 9.72473 7.40786 9.67625 7.41987C8.58141 7.3221 7.5373 7.02138 6.52195 6.60745C6.24571 6.49482 5.97228 6.37476 5.69998 6.25184C5.64811 6.2284 5.61203 6.18781 5.55509 6.24155C5.40794 6.3822 5.25685 6.51884 5.10802 6.65719C5.06743 6.67149 5.01049 6.65376 4.99639 6.7178C4.87293 6.68006 4.78047 6.68006 4.66433 6.78926C4.32269 7.11228 3.95624 7.409 3.59655 7.71259C3.49451 7.79834 3.42629 7.83608 3.30565 7.67885C2.83377 7.06311 2.33145 6.47081 1.83984 5.86994C1.83984 5.80933 1.83984 5.74873 1.83984 5.68813C1.8607 5.63496 1.89622 5.59608 1.95091 5.57779C1.99939 5.57779 2.0428 5.56864 2.06592 5.51833C2.12286 5.424 2.19333 5.34395 2.29255 5.29422C2.37373 5.35596 2.37937 5.27592 2.40418 5.23247C2.44026 5.15757 2.49551 5.10212 2.5688 5.06496C2.61785 5.06381 2.66351 5.05638 2.68606 5.00378C2.74131 4.90888 2.81573 4.83398 2.90932 4.77738C2.9578 4.77738 3.00121 4.76823 3.02432 4.71792L3.02263 4.71506ZM18.7451 5.97856C18.7541 5.98199 18.7625 5.986 18.7715 5.98943C18.7642 5.98428 18.7569 5.97913 18.749 5.97399C18.74 5.96999 18.731 5.96656 18.7219 5.96255C18.7298 5.9677 18.7372 5.97285 18.7451 5.97799V5.97856ZM4.27364 5.1187C4.0611 4.82769 3.89591 4.48352 3.47872 4.4132C3.70029 4.70592 3.92241 4.99921 4.14397 5.29193C4.21275 5.36682 4.21388 5.4966 4.33284 5.53033C4.54425 5.82763 4.75566 6.12492 4.96369 6.41821C5.19428 6.27071 5.2157 6.13922 5.00936 5.94941C4.81373 5.76989 4.65982 5.54406 4.48731 5.33881C4.43939 5.24219 4.35764 5.1793 4.27364 5.11813V5.1187ZM4.60288 4.89001C4.62092 4.87515 4.63896 4.86085 4.657 4.84599C4.90337 4.64874 5.14523 4.44464 5.39892 4.25769C5.50209 4.18165 5.53874 4.09818 5.47785 3.9987C5.42711 3.9158 4.92197 3.98955 4.87011 4.07988C4.74664 4.29657 4.62261 4.51268 4.50986 4.73507C4.47152 4.81054 4.44897 4.91459 4.60288 4.89001ZM3.22615 6.85901C3.35075 6.96192 3.3857 7.25292 3.62643 7.11228C3.95849 6.9179 4.26744 6.68178 4.58766 6.46567C4.65193 6.42222 4.69027 6.37133 4.61979 6.31016C4.4439 6.15694 4.36046 5.91739 4.1513 5.79561C4.09211 5.68527 4.04475 5.56578 3.92297 5.50575C3.77583 5.31308 3.62812 5.12156 3.48267 4.92774C3.41389 4.83627 3.35582 4.81168 3.25998 4.90716C2.98148 5.18273 2.69677 5.45201 2.407 5.715C2.29537 5.81619 2.30326 5.90081 2.39854 5.99629C2.56485 6.16266 2.73229 6.32731 2.89973 6.49254C2.94878 6.66977 3.08972 6.76296 3.22615 6.85958V6.85901ZM11.252 9.23393C11.2599 9.25737 11.2672 9.28024 11.2751 9.30368C11.2898 9.28596 11.305 9.26823 11.3196 9.25051C11.6184 9.45461 11.9595 9.57582 12.2758 9.74505C12.4241 9.82394 12.5379 9.89712 12.5616 10.1081C12.5943 10.4054 12.6975 10.6958 12.7759 10.9874C12.8644 11.3161 12.9585 11.6426 13.0628 12.0165C13.5978 10.9337 14.1058 9.90513 14.6188 8.86632C14.6611 8.90519 14.6786 8.91434 14.6848 8.92863C14.6921 8.94464 14.6966 8.96865 14.6899 8.98409C14.5421 9.32312 14.7192 9.25737 14.9306 9.19677C15.3213 9.08414 15.7159 8.98466 16.1117 8.89147C16.4821 8.80457 16.764 8.67307 16.8119 8.20941C16.8491 7.85209 16.9844 7.50048 17.1084 7.15802C17.1857 6.9442 17.1361 6.79212 17.0036 6.63547C16.8237 6.42279 16.6506 6.20382 16.4736 5.98828C16.4302 5.93568 16.3941 5.89624 16.3124 5.95284C16.1184 6.08719 15.9144 6.20554 15.712 6.33189C15.8264 6.53084 16.0142 6.65262 16.1884 6.75667C16.3953 6.88016 16.2898 6.96592 16.2216 7.08541C16.1359 7.23577 16.017 7.14716 15.9324 7.11228C15.3416 6.8653 14.753 6.65148 14.1261 6.99336C14.1204 6.95677 14.112 6.90818 14.0703 6.91447C13.993 6.92647 14.0224 6.99908 14.0133 7.04882C13.9857 7.05282 13.957 7.05225 13.9305 7.06083C13.0155 7.34554 12.0807 7.50334 11.1234 7.51763C11.0597 7.51877 11.0039 7.52621 10.9413 7.56165C10.6493 7.72631 10.3477 7.87324 10.0545 8.03561C9.89161 8.12594 9.8809 8.31461 9.85214 8.46783C9.82677 8.60504 9.9897 8.61533 10.0827 8.66164C10.4712 8.85431 10.8619 9.04355 11.252 9.23393ZM16.216 3.97412C16.2436 3.85234 16.19 3.82318 16.0762 3.78831C15.7661 3.6934 15.4741 3.5459 15.1657 3.4407C15.0027 3.38525 14.8787 3.41212 14.7502 3.48644C14.4762 3.64423 14.2394 3.86435 13.9406 3.98269C13.887 4.00385 13.8126 4.0816 13.8177 4.12391C13.8318 4.23425 13.9119 4.15478 13.9654 4.14792C14.0579 4.13591 14.0731 4.18794 14.0708 4.26626C14.0669 4.38976 14.0815 4.51496 14.0675 4.63731C14.0336 4.9346 14.1165 5.14328 14.3843 5.31937C14.7259 5.54406 15.0281 5.83106 15.3433 6.09577C15.429 6.1678 15.5096 6.16723 15.5964 6.11292C15.7588 6.01229 15.9132 5.89566 16.0829 5.80991C16.2239 5.73844 16.26 5.67955 16.1224 5.57436C15.942 5.436 15.9724 5.25305 16.0108 5.06324C16.0829 4.70134 16.1478 4.33773 16.216 3.97469V3.97412ZM18.957 5.34167C18.6058 5.26677 18.2546 5.18845 17.9022 5.11927C17.7652 5.0924 17.6316 4.99178 17.4828 5.11069C17.2877 5.2662 17.0802 5.4057 16.8801 5.55492C16.7239 5.67098 16.7003 5.76588 16.8587 5.93283C17.0148 6.09691 17.1451 6.19067 17.3678 6.09519C17.4591 6.05574 17.5662 6.05574 17.6649 6.03116C18.1401 5.9111 18.6718 5.90367 18.9582 5.34224L18.957 5.34167ZM11.5733 7.18146C12.1179 7.2878 13.5691 6.98708 14.4542 6.61489C14.1289 6.41078 13.745 6.38505 13.4174 6.21125C13.356 6.17866 13.2996 6.22669 13.2415 6.25928C12.7076 6.55771 12.1709 6.85158 11.5733 7.18146ZM19.9312 5.17415C19.8951 4.98835 19.8467 4.86714 19.6533 4.82598C18.6791 4.62016 17.7049 4.41091 16.7375 4.17536C16.5695 4.13477 16.5294 4.2028 16.5018 4.304C16.4663 4.43435 16.5554 4.46865 16.6766 4.49324C17.3497 4.62988 18.0189 4.78596 18.6921 4.92317C19.1002 5.00664 19.4954 5.16615 19.9312 5.17415ZM17.2511 4.99864C17.0521 4.88315 16.8576 4.88086 16.6766 4.84199C16.5971 4.82483 16.4336 4.73336 16.415 4.84313C16.3902 4.99292 16.2667 5.14099 16.3716 5.31537C16.4685 5.47659 16.5424 5.55149 16.7144 5.39198C16.8677 5.24962 17.0521 5.14214 17.2516 4.99864H17.2511ZM4.75848 5.21989C4.88195 5.4017 5.04713 5.52119 5.22077 5.41771C5.404 5.30851 5.72591 5.27649 5.65995 4.9003C5.35833 5.00721 5.06968 5.10955 4.75905 5.21932L4.75848 5.21989Z" fill="#010101"/>
<path d="M17.5756 19.1213C17.552 19.0115 17.5046 18.9154 17.4093 18.8303C17.2182 19.1641 17.0829 19.5095 16.9972 19.8776C16.9392 20.1269 16.8427 20.3659 16.7041 20.5809C16.5439 20.8284 16.3692 20.8507 16.1583 20.6375C15.8319 20.3076 15.6081 19.8994 15.3634 19.5089C15.3488 19.4854 15.338 19.4563 15.3177 19.4397C15.2033 19.3482 15.1548 19.1093 15.0178 19.1476C14.8977 19.1813 14.9987 19.4003 14.9688 19.5323C14.8972 19.8485 14.9118 20.1698 14.9152 20.49C14.9186 20.8136 14.6875 20.8696 14.4524 20.9325C13.9145 21.076 13.6608 20.8273 13.8023 20.2841C13.941 19.7524 13.963 19.2064 14.0149 18.6639C14.0944 18.6239 14.0651 18.5541 14.06 18.4912C14.1147 18.0024 14.1282 17.5084 14.237 17.0271C14.2889 16.7967 14.427 16.7515 14.5764 16.927C14.8149 17.2077 15.028 17.5102 15.2501 17.8052C15.5173 18.1596 15.7772 18.5198 16.0512 18.8691C16.244 19.1155 16.2615 19.111 16.3833 18.8051C16.6296 18.1871 16.8743 17.5685 17.106 16.9447C17.1511 16.823 17.2222 16.7172 17.265 16.5971C17.3022 16.4914 17.353 16.4285 17.4826 16.4285C17.6258 16.4285 17.6399 16.5314 17.6754 16.6206C17.8282 17.003 17.9742 17.3878 18.1287 17.7697C18.4269 18.5084 18.7263 19.247 19.0313 19.9834C19.1187 20.1944 19.1226 20.3202 18.8402 20.3264C18.6806 20.3299 18.5239 20.4048 18.3638 20.4322C18.1631 20.4665 18.0109 20.4276 17.9494 20.1824C17.879 19.9011 17.7673 19.6301 17.6737 19.3545C17.6597 19.3339 17.6456 19.3134 17.632 19.2928C17.6275 19.2556 17.623 19.2185 17.6179 19.1813C17.6038 19.1613 17.5897 19.1413 17.5756 19.1213Z" fill="#020201"/>
<path d="M1.00488 19.1203C1.41362 17.9637 1.82855 16.8094 2.22545 15.6488C2.29028 15.4584 2.36639 15.4453 2.53044 15.4956C3.01472 15.6448 3.51197 15.7568 3.98779 15.9295C4.66939 16.1765 4.84923 16.627 4.76128 17.2799C4.73253 17.4909 4.60455 17.6618 4.40103 17.755C4.26742 17.8162 4.13381 17.8768 3.99343 17.9408C4.10167 18.1055 4.2584 18.2152 4.35593 18.381C4.60174 18.799 4.47038 19.3209 4.1214 19.5593C3.74311 19.8183 3.3761 19.9127 2.88167 19.7783C2.30832 19.6228 1.74568 19.4256 1.16781 19.2878C1.14526 19.2821 1.12722 19.2552 1.10693 19.238C1.10805 19.1677 1.07817 19.1248 1.00545 19.1197L1.00488 19.1203ZM3.36257 18.5211C3.36313 18.3038 2.91381 17.9751 2.61501 18.0523C2.3647 18.1169 2.40811 18.4296 2.35117 18.6412C2.32072 18.7544 2.71649 18.9396 2.98202 18.947C3.17878 18.9527 3.36201 18.7475 3.36257 18.5217V18.5211ZM3.27913 17.3485C3.46292 17.3462 3.67152 17.3954 3.7076 17.1118C3.74255 16.8362 3.6298 16.7053 3.3575 16.6556C2.97808 16.587 2.9809 16.571 2.85461 16.9706C2.75877 17.2742 2.79542 17.3279 3.11056 17.3479C3.16638 17.3514 3.22275 17.3479 3.27913 17.3479V17.3485Z" fill="#FFA227"/>
<path d="M6.78847 16.5727C6.83469 17.0495 6.66218 17.4966 6.60524 17.9597C6.55845 18.3399 6.46712 18.715 6.40848 19.094C6.37015 19.341 6.69713 19.7046 7.00383 19.7429C7.18536 19.7658 7.37648 19.7778 7.5535 19.696C7.74744 19.6068 7.92277 19.5205 7.94927 19.2529C7.99888 18.7527 8.08344 18.2559 8.15166 17.7573C8.19113 17.4709 8.23341 17.1845 8.26329 16.8969C8.27682 16.7654 8.36307 16.782 8.44426 16.778C8.67766 16.7665 8.90091 16.8597 9.13657 16.8409C9.23579 16.8329 9.28202 16.9123 9.27074 17.0152C9.17998 17.8625 9.0785 18.7092 9.00183 19.5577C8.95729 20.0516 8.63368 20.3021 8.25201 20.4896C7.41425 20.9012 6.3397 20.744 5.70659 20.0436C5.38242 19.6852 5.21498 19.2918 5.3345 18.7961C5.50814 18.0741 5.67897 17.3508 5.82893 16.623C5.87121 16.4184 5.89996 16.356 6.12885 16.4178C6.3397 16.4744 6.56747 16.4767 6.77719 16.5607L6.78847 16.5722V16.5727Z" fill="#FFA126"/>
<path d="M19.8867 19.4066C19.876 19.3905 19.8709 19.3723 19.8726 19.3528C19.8738 19.2911 19.8873 19.2259 19.8304 19.1779C19.7447 19.0189 19.7086 18.8474 19.7029 18.6679C19.7035 18.6056 19.717 18.5398 19.6601 18.4918C19.6505 18.4758 19.646 18.4581 19.6466 18.4392C19.6471 18.3769 19.6607 18.3111 19.6037 18.2631C19.5941 18.2471 19.5896 18.23 19.5902 18.2111C19.5907 18.1482 19.6043 18.0825 19.5468 18.0344C19.3399 17.4776 19.2401 16.891 19.0867 16.3198C19.0473 16.1723 19.1499 16.1215 19.2632 16.0963C20.0074 15.9311 20.7397 15.7218 21.4636 15.4823C21.6158 15.432 21.7331 15.4514 21.7895 15.6218C21.9789 16.1935 22.1401 16.2478 21.3999 16.4416C21.0673 16.5285 20.7448 16.6572 20.4082 16.7355C20.3569 16.7475 20.2808 16.7549 20.3107 16.8933C20.4184 17.3992 20.437 17.425 20.9331 17.2712C21.1834 17.1934 21.4343 17.1162 21.6823 17.0299C21.8334 16.9767 21.9332 17.0076 21.9823 17.1683C21.9851 17.1768 21.9941 17.1831 21.998 17.1917C22.1623 17.5847 22.0379 17.8463 21.6248 17.9767C21.3818 18.0533 21.1406 18.1391 20.8925 18.1974C20.7335 18.2351 20.6788 18.2951 20.7549 18.4484C20.7961 18.5318 20.8051 18.6302 20.8209 18.7148C20.857 18.9109 20.959 18.9132 21.1011 18.8714C21.5527 18.7388 22.0065 18.6124 22.4541 18.4666C22.661 18.3998 22.7997 18.4318 22.8584 18.653C23.0162 19.2499 23.2062 19.1853 22.4361 19.4094C21.7393 19.6124 21.0447 19.8199 20.3411 19.9983C20.2334 20.0257 20.1376 20.0732 20.0418 19.9811C20.044 19.936 20.0401 19.8931 20 19.8634C19.9893 19.8468 19.9843 19.8291 19.9854 19.809C19.986 19.7473 19.9995 19.6821 19.9431 19.6347C19.9324 19.6187 19.9279 19.6004 19.929 19.5809C19.9301 19.5192 19.9437 19.454 19.8867 19.406V19.4066Z" fill="#020201"/>
<path d="M11.4987 20.9999C10.8853 20.9805 10.9761 21.0931 10.9716 20.4476C10.9699 20.1938 10.9637 19.9422 11.0206 19.6872C11.135 19.1733 10.9067 18.7559 10.5983 18.3746C10.304 18.011 10.0904 17.5953 9.84063 17.2026C9.73182 17.0316 9.80399 16.9573 9.97481 16.9504C10.1806 16.9419 10.3875 16.951 10.5938 16.947C10.6976 16.9447 10.7506 16.9887 10.8137 17.0779C11.0178 17.3666 11.1796 17.6811 11.4028 17.9601C11.559 18.155 11.6351 18.099 11.7405 17.9584C11.8854 17.7657 12.0613 17.5827 12.1515 17.3649C12.3161 16.9676 12.6516 16.9916 12.9707 16.9487C13.0073 16.9436 13.0468 16.9419 13.0829 16.9487C13.1844 16.9693 13.3242 16.8841 13.3822 17.0133C13.4364 17.1339 13.3642 17.2529 13.2915 17.3546C12.929 17.8612 12.5659 18.3677 12.2011 18.8725C12.1256 18.9772 12.1025 19.0904 12.1036 19.2173C12.107 19.6644 12.1047 20.1109 12.1047 20.558C12.1047 20.8522 11.9591 20.9993 11.6678 20.9993C11.6114 20.9993 11.5551 20.9993 11.4992 20.9993L11.4987 20.9999Z" fill="#FFA126"/>
<path d="M14.1933 12.092C14.3494 12.3087 14.2987 12.5586 14.3021 12.7998C13.9948 12.6066 14.1572 12.3396 14.1933 12.092Z" fill="#020201"/>
<path d="M14.3291 12.8266C14.4295 12.7352 14.5253 12.8261 14.6234 12.8341C14.5381 12.956 14.44 12.9536 14.3291 12.8266Z" fill="#020201"/>
<path d="M12.7734 4.38574C12.7734 4.42062 12.7734 4.45492 12.7734 4.4898C12.7734 4.52467 12.7734 4.55954 12.7734 4.59442C12.6893 4.61557 12.6149 4.60871 12.5625 4.52181C12.6318 4.47722 12.7023 4.43148 12.7734 4.38574Z" fill="#040302"/>
<path d="M14.8711 6.20328C14.9224 6.17298 14.9765 6.15697 15.0047 6.22729C15.0318 6.29475 14.9946 6.34621 14.9449 6.38909C14.9348 6.36622 14.9247 6.34278 14.9145 6.31991C14.8998 6.28103 14.8858 6.24215 14.8711 6.20328Z" fill="#040302"/>
<path d="M16.1523 14.6695C16.1811 14.5946 16.233 14.5517 16.3141 14.5488C16.3164 14.666 16.3006 14.7598 16.1523 14.6695Z" fill="#020201"/>
<path d="M14.0605 18.4919C14.0656 18.5548 14.0949 18.624 14.0154 18.6646C13.9263 18.5794 13.9376 18.5211 14.0605 18.4919Z" fill="white"/>
<path d="M14.1758 11.6363C14.2327 11.6409 14.288 11.65 14.2857 11.7261C14.284 11.7855 14.2372 11.7958 14.1916 11.805C14.1865 11.7484 14.1809 11.6923 14.1758 11.6357V11.6363Z" fill="#020201"/>
<path d="M13.8438 5.34642C13.9559 5.29554 13.939 5.39159 13.9565 5.44819C13.8945 5.4419 13.8674 5.39559 13.8438 5.34642Z" fill="#040302"/>
<path d="M12.773 4.59461C12.773 4.55974 12.773 4.52487 12.773 4.48999C12.8221 4.49171 12.8649 4.50428 12.888 4.55345C12.8677 4.61977 12.8198 4.60548 12.7725 4.59461H12.773Z" fill="#030302"/>
<path d="M1.83811 5.6853C1.83811 5.7459 1.83811 5.80651 1.83811 5.86711C1.71803 5.80651 1.71803 5.7459 1.83811 5.6853Z" fill="#040302"/>
<path d="M1.00487 19.1201C1.07759 19.1253 1.10747 19.1681 1.10634 19.2385C1.03869 19.2287 0.982878 19.2093 1.00487 19.1201Z" fill="#FFA32A"/>
<path d="M6.06869 8.66919C6.06587 8.73437 6.0343 8.77267 5.96777 8.77667C5.9751 8.71607 6.014 8.68463 6.06869 8.66919Z" fill="#030302"/>
<path d="M19.9429 19.6353C19.9993 19.6827 19.9858 19.7479 19.9852 19.8096C19.9046 19.7679 19.9424 19.697 19.9429 19.6353Z" fill="#0B0A07"/>
<path d="M9.89919 10.8406C9.89524 10.9143 9.85465 10.9475 9.78418 10.9469C9.80448 10.892 9.84225 10.8554 9.89919 10.8406Z" fill="#040302"/>
<path d="M19.8861 19.4067C19.9425 19.4548 19.9289 19.5194 19.9284 19.5817C19.8483 19.5399 19.8855 19.4685 19.8861 19.4067Z" fill="#0B0A07"/>
<path d="M7.08165 7.46338C7.08165 7.53084 7.05233 7.57201 6.98242 7.57658C6.98862 7.51426 7.03316 7.48739 7.08165 7.46338Z" fill="#030302"/>
<path d="M15.1928 12.2063C15.2824 12.2812 15.2289 12.3041 15.1533 12.3195C15.1663 12.2818 15.1798 12.244 15.1928 12.2063Z" fill="#040302"/>
<path d="M4.99414 6.71441C5.00823 6.65038 5.06574 6.6681 5.10577 6.65381C5.08322 6.70183 5.07701 6.7813 4.99414 6.71441Z" fill="#FEFDFA"/>
<path d="M19.8294 19.178C19.8858 19.226 19.8723 19.2906 19.8717 19.3529C19.7917 19.3112 19.8289 19.2397 19.8294 19.178Z" fill="#0B0A07"/>
<path d="M9.9668 13.1445C10.0018 13.0839 10.0547 13.057 10.1224 13.0581C10.0931 13.1285 10.0497 13.1731 9.9668 13.1445Z" fill="#FEFDFA"/>
<path d="M14.6279 5.97583C14.6956 5.97583 14.7412 6.00213 14.7463 6.07702C14.6849 6.07016 14.6533 6.02671 14.6279 5.97583Z" fill="#040302"/>
<path d="M19.6597 18.4924C19.7167 18.5405 19.7037 18.6062 19.7026 18.6685C19.6197 18.6274 19.658 18.5553 19.6597 18.4924Z" fill="#0B0A07"/>
<path d="M19.6031 18.2637C19.66 18.3117 19.6471 18.3774 19.6459 18.4398C19.5631 18.3986 19.6014 18.3266 19.6031 18.2637Z" fill="#0B0A07"/>
<path d="M19.5462 18.0352C19.6037 18.0832 19.5908 18.1489 19.5896 18.2118C19.5045 18.1707 19.544 18.098 19.5462 18.0352Z" fill="#0B0A07"/>
<path d="M2.40264 5.22974C2.37784 5.27319 2.37276 5.35323 2.29102 5.29148C2.30455 5.22688 2.36374 5.24746 2.40264 5.22974Z" fill="#040302"/>
<path d="M19.9993 19.864C20.0387 19.8937 20.0433 19.9366 20.041 19.9818C19.9829 19.9589 19.9903 19.9115 19.9993 19.864Z" fill="#0B0A07"/>
<path d="M6.7043 7.89331C6.73193 7.95677 6.68852 7.96763 6.64342 7.97621C6.63158 7.92418 6.68063 7.91789 6.7043 7.89331Z" fill="#030302"/>
<path d="M6.79828 7.80127C6.79208 7.85101 6.78983 7.90532 6.71484 7.88017C6.74247 7.85387 6.77066 7.82757 6.79828 7.80127Z" fill="#030302"/>
<path d="M10.0668 10.7158C10.0476 10.7633 10.0076 10.7759 9.96191 10.7776C9.96868 10.7078 10.0313 10.7353 10.0668 10.7158Z" fill="#040302"/>
<path d="M9.77734 13.2908C9.79313 13.2222 9.85289 13.2405 9.89686 13.2285C9.87431 13.2828 9.82696 13.2897 9.77734 13.2908Z" fill="#FEFDFA"/>
<path d="M3.86692 4.14984C3.84832 4.13098 3.82915 4.11211 3.81055 4.09324C3.90019 4.0395 3.85283 4.12583 3.86692 4.14984Z" fill="#FEFDF8"/>
<path d="M9.55176 13.4625C9.56698 13.3962 9.62505 13.4076 9.67015 13.3967C9.64929 13.4533 9.6025 13.4613 9.55176 13.4625Z" fill="#FEFDFA"/>
<path d="M4.32362 4.54883C4.28416 4.62887 4.24469 4.63058 4.2041 4.5494C4.24413 4.5494 4.28359 4.5494 4.32362 4.54883Z" fill="#FEFDF8"/>
<path d="M3.02224 4.71509C2.99912 4.7654 2.95571 4.77455 2.90723 4.77455C2.92132 4.70651 2.98221 4.7311 3.02224 4.71509Z" fill="#040302"/>
<path d="M12.0322 14.6012C12.0424 14.5578 12.0317 14.5023 12.0948 14.4897C12.0954 14.5395 12.0852 14.5824 12.0322 14.6012Z" fill="#FEFDF8"/>
<path d="M2.68367 5.00049C2.66112 5.05309 2.61545 5.06052 2.56641 5.06166C2.58106 4.99363 2.64195 5.01592 2.68367 5.00049Z" fill="#040302"/>
<path d="M2.06423 5.51489C2.04111 5.5652 1.9977 5.57435 1.94922 5.57435C1.96331 5.50632 2.0242 5.53147 2.06423 5.51489Z" fill="#040302"/>
<path d="M6.77734 16.5606C6.78975 16.5515 6.80215 16.5424 6.81455 16.5332C6.8061 16.5458 6.79708 16.5589 6.78862 16.5721L6.77734 16.5606Z" fill="#FEFDF8"/>
<path d="M19.0368 5.91869C19.03 5.87924 19.0441 5.86209 19.0847 5.8718C19.0689 5.88724 19.0531 5.90325 19.0368 5.91869Z" fill="#FEFDF8"/>
<path d="M10.4159 14.3195C10.4047 14.28 10.4283 14.2669 10.4599 14.26C10.4453 14.28 10.4306 14.2995 10.4159 14.3195Z" fill="#FEFDF8"/>
<path d="M10.46 14.2605C10.4667 14.2285 10.4797 14.2039 10.5186 14.2165C10.4989 14.2314 10.4797 14.2462 10.46 14.2605Z" fill="#FEFDF8"/>
<path d="M11.0765 13.9199C11.0889 13.9622 11.0624 13.9771 11.0303 13.9885C11.0455 13.9657 11.0607 13.9428 11.0765 13.9199Z" fill="#FEFDF8"/>
<path d="M10.1136 13.2344C10.1243 13.2727 10.1034 13.2881 10.0713 13.2955C10.0854 13.275 10.0995 13.2544 10.1136 13.2344Z" fill="#FEFDFA"/>
<path d="M17.5759 19.1213C17.59 19.1413 17.6041 19.1614 17.6182 19.1814C17.5884 19.1728 17.5624 19.1614 17.5759 19.1213Z" fill="#040302"/>
<path d="M17.6328 19.293C17.6468 19.3136 17.6609 19.3341 17.6745 19.3547C17.6457 19.3444 17.6187 19.3324 17.6328 19.293Z" fill="#040302"/>
<path d="M8.9393 7.7532C8.92126 7.74863 8.90322 7.74291 8.88574 7.73662C8.91393 7.70804 8.92972 7.72061 8.9393 7.7532Z" fill="#FFFEFD"/>
<path d="M16.715 10.5524C16.6839 10.5444 16.6591 10.5312 16.671 10.4912C16.6856 10.5118 16.7003 10.5318 16.715 10.5524Z" fill="#FFFEFD"/>
<path d="M6.12288 8.6062C6.10653 8.62507 6.09018 8.64336 6.0744 8.66223C6.07214 8.62678 6.09131 8.61135 6.12288 8.6062Z" fill="#030302"/>
<path d="M14.1252 6.99449C14.7521 6.6526 15.3407 6.86642 15.9315 7.1134C16.0161 7.14885 16.1351 7.2369 16.2208 7.08653C16.289 6.96704 16.3944 6.88129 16.1875 6.7578C16.0133 6.65374 15.8256 6.53197 15.7111 6.33301C15.9135 6.20666 16.1176 6.08831 16.3115 5.95396C16.3933 5.89736 16.4299 5.93681 16.4728 5.98941C16.6498 6.20494 16.8229 6.42334 17.0027 6.63659C17.1352 6.79324 17.1848 6.94532 17.1076 7.15914C16.9835 7.5016 16.8482 7.85264 16.811 8.21053C16.7625 8.6742 16.4812 8.80512 16.1108 8.89259C15.7151 8.98578 15.3204 9.08526 14.9297 9.19789C14.7183 9.25907 14.5413 9.32424 14.689 8.98521C14.6958 8.97035 14.6912 8.94576 14.6839 8.92976C14.6772 8.91546 14.6597 8.90574 14.618 8.86744C14.1049 9.90625 13.597 10.9348 13.062 12.0176C12.9577 11.6443 12.8635 11.3173 12.775 10.9885C12.6966 10.6969 12.5935 10.4065 12.5608 10.1092C12.5376 9.89825 12.4232 9.82507 12.2749 9.74617C11.9587 9.57694 11.6176 9.45574 11.3188 9.25163C11.3058 9.24363 11.2928 9.23563 11.2793 9.22819C11.2686 9.22648 11.2579 9.22934 11.2477 9.2362L11.2511 9.23505C10.861 9.04467 10.4709 8.85543 10.0819 8.66276C9.98884 8.61645 9.82591 8.60616 9.85128 8.46895C9.87947 8.31573 9.89018 8.12706 10.0537 8.03673C10.3468 7.87436 10.6485 7.72743 10.9405 7.56278C11.0031 7.5279 11.0583 7.5199 11.1226 7.51875C12.0804 7.50503 13.0152 7.34724 13.9296 7.06195C13.9561 7.05395 13.9848 7.05395 14.0125 7.04994C14.0502 7.03108 14.0875 7.01278 14.1252 6.99392V6.99449Z" fill="white"/>
<path d="M16.216 3.97547C16.1483 4.33851 16.0835 4.70212 16.0108 5.06402C15.973 5.25383 15.942 5.43678 16.1224 5.57514C16.2594 5.68033 16.2233 5.73922 16.0829 5.81069C15.9132 5.89644 15.7587 6.0125 15.5964 6.1137C15.5096 6.16744 15.4289 6.16801 15.3432 6.09654C15.0275 5.83184 14.7259 5.54484 14.3843 5.32015C14.1165 5.14406 14.033 4.93538 14.0674 4.63809C14.0815 4.51574 14.0669 4.39053 14.0708 4.26704C14.0731 4.18872 14.0579 4.13669 13.9654 4.1487C13.9118 4.15556 13.8318 4.23503 13.8177 4.12469C13.812 4.08238 13.8865 4.00462 13.9406 3.98347C14.2399 3.86513 14.4762 3.64501 14.7502 3.48722C14.8787 3.41347 15.0027 3.38602 15.1657 3.44148C15.474 3.54668 15.7661 3.69418 16.0761 3.78909C16.19 3.82396 16.2436 3.85312 16.216 3.9749V3.97547ZM15.4921 4.46657C15.6432 4.47458 15.5716 4.85191 15.8354 4.66782C15.9358 4.5975 16.0029 4.52203 15.9076 4.38539C15.7114 4.10468 15.6364 4.44885 15.4921 4.46657Z" fill="white"/>
<path d="M18.9564 5.3429C18.67 5.90432 18.1389 5.91176 17.6631 6.03182C17.565 6.0564 17.4579 6.0564 17.366 6.09585C17.1433 6.19133 17.0136 6.09814 16.8569 5.93348C16.6985 5.76711 16.7221 5.67163 16.8783 5.55557C17.0784 5.40693 17.2865 5.26743 17.481 5.11135C17.6298 4.99243 17.7634 5.09248 17.9004 5.11992C18.2533 5.1891 18.604 5.268 18.9552 5.34232L18.9564 5.3429Z" fill="#FDA026"/>
<path d="M2.89975 6.49197C2.73287 6.32675 2.56487 6.16209 2.39856 5.99572C2.30328 5.90024 2.29539 5.81563 2.40701 5.71444C2.69679 5.45144 2.98149 5.18216 3.26 4.9066C3.3564 4.81169 3.41447 4.83627 3.48269 4.92718C3.62814 5.12099 3.77585 5.31252 3.92299 5.50519C3.51595 5.76417 3.23857 6.16095 2.89918 6.4914L2.89975 6.49197Z" fill="#FDA026"/>
<path d="M11.5732 7.18273C12.1714 6.85342 12.7075 6.55899 13.2414 6.26055C13.2995 6.22796 13.3559 6.17994 13.4173 6.21253C13.7449 6.38633 14.1288 6.41206 14.4541 6.61616C13.569 6.98835 12.1178 7.28907 11.5732 7.18273Z" fill="white"/>
<path d="M19.9305 5.17551C19.4947 5.16751 19.0995 5.00743 18.6913 4.92453C18.0182 4.78731 17.349 4.63181 16.6758 4.49459C16.5546 4.47001 16.4655 4.43571 16.501 4.30536C16.5287 4.20416 16.5687 4.13613 16.7367 4.17672C17.7041 4.41227 18.6783 4.62152 19.6525 4.82734C19.8459 4.86793 19.8944 4.98913 19.9305 5.17551Z" fill="#FDA026"/>
<path d="M4.15073 5.79574C4.35933 5.91751 4.44277 6.15706 4.61923 6.31028C4.6897 6.37203 4.65136 6.42234 4.58709 6.46579C4.26687 6.68247 3.95849 6.91802 3.62586 7.11241C3.38513 7.25305 3.34962 6.96204 3.22559 6.85914C3.52833 6.49952 3.79387 6.10618 4.15073 5.79517V5.79574Z" fill="#FDA026"/>
<path d="M4.15098 5.79564C3.79355 6.10665 3.52858 6.5 3.22584 6.85961C3.08884 6.76299 2.94846 6.6698 2.89941 6.49256C3.2388 6.16211 3.51618 5.76476 3.92322 5.50635C4.04499 5.56581 4.09235 5.68587 4.15155 5.79621L4.15098 5.79564Z" fill="#FEFDFA"/>
<path d="M4.60237 4.89056C4.44846 4.91514 4.47157 4.81109 4.50935 4.73562C4.6221 4.51322 4.74613 4.29711 4.86959 4.08043C4.9209 3.9901 5.42604 3.91635 5.47734 3.99925C5.53823 4.09872 5.50158 4.1822 5.39841 4.25823C5.14471 4.44519 4.90286 4.64929 4.65649 4.84653C4.61815 4.8351 4.60575 4.85797 4.60237 4.89056Z" fill="#FCC100"/>
<path d="M17.2507 4.99993C17.0512 5.14344 16.8668 5.25092 16.7135 5.39328C16.5415 5.55279 16.4677 5.47789 16.3707 5.31667C16.2658 5.14229 16.3893 4.99479 16.4141 4.84443C16.4327 4.73466 16.5956 4.82613 16.6757 4.84328C16.8567 4.88273 17.0517 4.88445 17.2502 4.99993H17.2507Z" fill="#FDA026"/>
<path d="M4.4865 5.33936C4.65902 5.5446 4.81293 5.77043 5.00856 5.94995C5.2149 6.13919 5.19347 6.27126 4.96289 6.41876C4.75486 6.12604 4.54345 5.82818 4.33203 5.53088C4.38333 5.46685 4.4352 5.40339 4.4865 5.33936Z" fill="#FDA026"/>
<path d="M4.75838 5.22112C5.06901 5.11078 5.35766 5.00901 5.65928 4.9021C5.72581 5.27829 5.40333 5.30974 5.2201 5.41951C5.04646 5.52299 4.88184 5.4035 4.75781 5.22169L4.75838 5.22112Z" fill="#FCC100"/>
<path d="M4.14376 5.29206C3.9222 4.99934 3.70008 4.70605 3.47852 4.41333C3.89514 4.48365 4.06033 4.82783 4.27343 5.11883C4.23002 5.17658 4.18717 5.23432 4.14376 5.29206Z" fill="#FDA026"/>
<path d="M4.14355 5.29213C4.18696 5.23438 4.22981 5.17664 4.27322 5.1189C4.35722 5.1795 4.43897 5.24296 4.48689 5.33958C4.43559 5.40361 4.38372 5.46707 4.33242 5.53111C4.21346 5.49737 4.21233 5.36702 4.14355 5.2927V5.29213Z" fill="#FEFDF8"/>
<path d="M5.39604 4.60645C5.38814 4.64875 5.41351 4.66533 5.44734 4.67448C5.41239 4.81684 5.31147 4.69678 5.24833 4.72593C5.24269 4.61674 5.32275 4.61559 5.39604 4.60645Z" fill="#040302"/>
<path d="M14.1254 6.99465C14.0877 7.01352 14.0505 7.03181 14.0127 7.05068C14.0217 7.00094 13.9924 6.92776 14.0696 6.91633C14.1114 6.91004 14.1198 6.95863 14.1254 6.99522V6.99465Z" fill="#030302"/>
<path d="M11.2796 9.22774C11.2926 9.23574 11.3061 9.24374 11.3191 9.25118C11.3039 9.2689 11.2892 9.28662 11.2745 9.30378C11.2667 9.28033 11.2593 9.25747 11.2514 9.23403L11.248 9.23517L11.2604 9.21802L11.2796 9.22716V9.22774Z" fill="#FDA026"/>
<path d="M4.60254 4.89076C4.60649 4.85817 4.61832 4.8353 4.65666 4.84673C4.63862 4.8616 4.62058 4.87589 4.60254 4.89076Z" fill="#040302"/>
<path d="M18.7448 5.97857C18.7369 5.97343 18.7296 5.96828 18.7217 5.96313C18.7307 5.96714 18.7397 5.97057 18.7487 5.97457L18.7448 5.97914V5.97857Z" fill="#030302"/>
<path d="M18.7491 5.97412C18.7564 5.97927 18.7637 5.98441 18.7716 5.98956C18.7626 5.98613 18.7541 5.98213 18.7451 5.97869L18.7491 5.97469V5.97412Z" fill="#030302"/>
<path d="M11.2796 9.22765L11.2604 9.21851L11.248 9.23566C11.2582 9.2288 11.2689 9.22594 11.2796 9.22765Z" fill="#010101"/>
<path d="M15.4922 4.46634C15.6365 4.44862 15.7115 4.10445 15.9077 4.38516C16.0035 4.5218 15.9359 4.59727 15.8355 4.66759C15.5722 4.85168 15.6433 4.47435 15.4922 4.46634Z" fill="#040302"/>
</g>
<defs>
<clipPath id="clip0_2231_51157">
<rect width="22" height="18" fill="white" transform="translate(1 3)"/>
</clipPath>
</defs>
</svg>
