<svg width="24" height="25" viewBox="0 0 24 25" fill="none" xmlns="http://www.w3.org/2000/svg">
<path d="M5.5 6.09766V5.59766H5H4.5V4.59766H9H9.5V4.09766V3.59766H14.5V4.09766V4.59766H15H19.5V5.59766H19H18.5V6.09766V19.0977C18.5 19.5139 18.3578 19.858 18.0597 20.1569C17.7607 20.4553 17.4164 20.5977 17 20.5977H7C6.58354 20.5977 6.23978 20.4553 5.94155 20.1571C5.64248 19.858 5.5 19.5139 5.5 19.0977V6.09766ZM17.5 6.09766V5.59766H17H7H6.5V6.09766V19.0977V19.5977H7H17H17.5V19.0977V6.09766ZM10.5 8.59766V16.5977H9.5V8.59766H10.5ZM14.5 8.59766V16.5977H13.5V8.59766H14.5Z" fill="#191919" stroke="#353535"/>
</svg>
