<svg width="22" height="23" viewBox="0 0 22 23" fill="none" xmlns="http://www.w3.org/2000/svg">
<path d="M10.084 14.3473H11.9173V16.1807H10.084V14.3473ZM10.084 7.014H11.9173V12.514H10.084V7.014ZM10.9915 2.43066C5.93148 2.43066 1.83398 6.53733 1.83398 11.5973C1.83398 16.6573 5.93148 20.764 10.9915 20.764C16.0607 20.764 20.1673 16.6573 20.1673 11.5973C20.1673 6.53733 16.0607 2.43066 10.9915 2.43066ZM11.0007 18.9307C6.94898 18.9307 3.66732 15.649 3.66732 11.5973C3.66732 7.54566 6.94898 4.264 11.0007 4.264C15.0523 4.264 18.334 7.54566 18.334 11.5973C18.334 15.649 15.0523 18.9307 11.0007 18.9307Z" fill="#D32F2F"/>
</svg>
