<svg width="28" height="28" viewBox="0 0 28 28" fill="none" xmlns="http://www.w3.org/2000/svg">
<path d="M27.7147 13.9846C27.7117 11.3663 26.9592 8.80349 25.5461 6.59917C24.133 4.39485 22.1185 2.6411 19.7405 1.54519C17.3626 0.449281 14.7206 0.0570124 12.1268 0.414736C9.53295 0.77246 7.09576 1.86522 5.1032 3.5639C3.11064 5.26257 1.646 7.49614 0.882358 10.0007C0.118717 12.5052 0.0879949 15.176 0.793826 17.6974C1.49966 20.2188 2.91254 22.4855 4.8655 24.2295C6.81846 25.9736 9.22987 27.1221 11.8148 27.5394V17.9526H8.33459V13.9846H11.8148V10.9829C11.8148 7.54959 13.8691 5.64534 17.0022 5.64534C18.03 5.65978 19.0553 5.75071 20.0696 5.91738V9.29436H18.3342C18.0395 9.25545 17.7398 9.2831 17.4572 9.37527C17.1746 9.46745 16.9163 9.62181 16.7012 9.82699C16.4861 10.0322 16.3198 10.283 16.2144 10.5609C16.109 10.8389 16.0673 11.1369 16.0923 11.4331V13.9846H19.9007L19.2722 17.9526H16.1016V27.5394C19.3349 27.0343 22.2815 25.3911 24.4106 22.906C26.5397 20.4208 27.7115 17.2571 27.7147 13.9846Z" fill="url(#paint0_linear_1436_10575)"/>
<defs>
<linearGradient id="paint0_linear_1436_10575" x1="4.26345" y1="4.29456" x2="23.6623" y2="23.684" gradientUnits="userSpaceOnUse">
<stop stop-color="#4676ED"/>
<stop offset="0.19" stop-color="#436DE4"/>
<stop offset="0.49" stop-color="#3C55CD"/>
<stop offset="0.87" stop-color="#302EA8"/>
<stop offset="1" stop-color="#2B1E99"/>
</linearGradient>
</defs>
</svg>
