<svg width="30" height="30" viewBox="0 0 30 30" fill="none" xmlns="http://www.w3.org/2000/svg">
<g filter="url(#filter0_ii_1210_5246)">
<path fill-rule="evenodd" clip-rule="evenodd" d="M7.18413 2.4668C6.09437 2.4668 5.21094 3.35023 5.21094 4.43999V25.1585C5.21094 26.2483 6.09437 27.1317 7.18413 27.1317H23.2163C24.3061 27.1317 25.1895 26.2483 25.1895 25.1585V8.63289L19.0234 2.4668H7.18413Z" fill="#FA4E4E"/>
</g>
<path d="M19.2067 19.0776C18.3744 19.0158 17.5731 18.7067 16.9258 18.1504C15.6621 18.4285 14.4598 18.8302 13.2577 19.3249C12.3022 21.0248 11.4083 21.8902 10.6377 21.8902C10.4835 21.8902 10.2987 21.8594 10.1753 21.7666C9.8362 21.6121 9.65137 21.272 9.65137 20.9321C9.65137 20.6539 9.71303 19.8812 12.6412 18.6139C13.3195 17.3776 13.8433 16.1104 14.275 14.7815C13.905 14.0397 13.1037 12.216 13.6583 11.2889C13.8433 10.9488 14.2133 10.7634 14.6141 10.7944C14.9223 10.7944 15.2304 10.9488 15.4154 11.1961C15.8162 11.7524 15.7854 12.927 15.2613 14.6578C15.7546 15.5837 16.4007 16.4197 17.1723 17.1305C17.8198 17.0067 18.4669 16.914 19.1142 16.914C20.563 16.9449 20.7788 17.6249 20.748 18.0267C20.748 19.0776 19.7307 19.0776 19.2067 19.0776ZM10.5761 20.9938L10.6686 20.9629C11.1001 20.8085 11.4391 20.4994 11.6858 20.0975C11.2233 20.283 10.8535 20.592 10.5761 20.9939V20.9938ZM14.6756 11.7216H14.5831C14.5523 11.7216 14.4906 11.7216 14.4598 11.7524C14.3365 12.2778 14.429 12.8342 14.6448 13.3287C14.8298 12.8033 14.8298 12.247 14.6756 11.7216ZM14.8914 16.2032L14.8606 16.2649L14.8298 16.2341C14.5523 16.945 14.244 17.6558 13.905 18.3358L13.9667 18.305V18.3667C14.6521 18.1181 15.3521 17.9117 16.0627 17.7485L16.0319 17.7177H16.1244C15.6619 17.254 15.2304 16.7286 14.8914 16.2032ZM19.0834 17.8413C18.8059 17.8413 18.5594 17.8413 18.2819 17.903C18.5902 18.0576 18.8986 18.1194 19.2067 18.1504C19.4225 18.1812 19.6384 18.1504 19.8232 18.0886C19.8232 17.9958 19.6999 17.8413 19.0834 17.8413Z" fill="white"/>
<path d="M24.6112 8.05469H19.6016L25.1897 13.6428V8.63277L24.6112 8.05469Z" fill="url(#paint0_linear_1210_5246)"/>
<path d="M20.9974 8.63281L25.1904 8.63281L19.0242 2.46658L19.0242 6.65962C19.0242 7.74938 19.9076 8.63281 20.9974 8.63281Z" fill="#FDB8B8"/>
<defs>
<filter id="filter0_ii_1210_5246" x="5.21094" y="2.34347" width="19.9785" height="24.9117" filterUnits="userSpaceOnUse" color-interpolation-filters="sRGB">
<feFlood flood-opacity="0" result="BackgroundImageFix"/>
<feBlend mode="normal" in="SourceGraphic" in2="BackgroundImageFix" result="shape"/>
<feColorMatrix in="SourceAlpha" type="matrix" values="0 0 0 0 0 0 0 0 0 0 0 0 0 0 0 0 0 0 127 0" result="hardAlpha"/>
<feOffset dy="-0.246649"/>
<feGaussianBlur stdDeviation="0.0616623"/>
<feComposite in2="hardAlpha" operator="arithmetic" k2="-1" k3="1"/>
<feColorMatrix type="matrix" values="0 0 0 0 0 0 0 0 0 0 0 0 0 0 0 0 0 0 0.3 0"/>
<feBlend mode="normal" in2="shape" result="effect1_innerShadow_1210_5246"/>
<feColorMatrix in="SourceAlpha" type="matrix" values="0 0 0 0 0 0 0 0 0 0 0 0 0 0 0 0 0 0 127 0" result="hardAlpha"/>
<feOffset dy="0.246649"/>
<feGaussianBlur stdDeviation="0.0616623"/>
<feComposite in2="hardAlpha" operator="arithmetic" k2="-1" k3="1"/>
<feColorMatrix type="matrix" values="0 0 0 0 1 0 0 0 0 1 0 0 0 0 1 0 0 0 0.3 0"/>
<feBlend mode="normal" in2="effect1_innerShadow_1210_5246" result="effect2_innerShadow_1210_5246"/>
</filter>
<linearGradient id="paint0_linear_1210_5246" x1="20.8541" y1="6.80217" x2="26.4422" y2="12.3903" gradientUnits="userSpaceOnUse">
<stop stop-opacity="0.2"/>
<stop offset="1" stop-opacity="0"/>
</linearGradient>
</defs>
</svg>
