<svg width="34" height="34" viewBox="0 0 34 34" fill="none" xmlns="http://www.w3.org/2000/svg">
<path d="M16.9986 33.9972C26.3866 33.9972 33.9972 26.3866 33.9972 16.9986C33.9972 7.61053 26.3866 0 16.9986 0C7.61053 0 0 7.61053 0 16.9986C0 26.3866 7.61053 33.9972 16.9986 33.9972Z" fill="url(#paint0_linear_1731_11732)"/>
<path d="M22.2767 10.5674C22.0468 10.5674 21.8221 10.6356 21.6309 10.7633C21.4397 10.891 21.2907 11.0726 21.2027 11.285C21.1148 11.4974 21.0917 11.7311 21.1366 11.9566C21.1815 12.1821 21.2922 12.3893 21.4547 12.5518C21.6173 12.7144 21.8244 12.8251 22.0499 12.87C22.2754 12.9148 22.5092 12.8918 22.7216 12.8038C22.934 12.7158 23.1156 12.5668 23.2433 12.3757C23.371 12.1845 23.4392 11.9598 23.4392 11.7299C23.4392 11.4215 23.3167 11.1259 23.0987 10.9079C22.8807 10.6899 22.585 10.5674 22.2767 10.5674Z" fill="white"/>
<path d="M17.0801 12.0918C16.1054 12.0895 15.152 12.3769 14.3409 12.9175C13.5299 13.4581 12.8977 14.2274 12.5247 15.128C12.1517 16.0285 12.0547 17.0195 12.246 17.9753C12.4373 18.931 12.9083 19.8084 13.5992 20.4959C14.29 21.1835 15.1696 21.6503 16.1262 21.8371C17.0829 22.0238 18.0734 21.9221 18.9722 21.5449C19.8709 21.1676 20.6373 20.5318 21.174 19.7182C21.7107 18.9046 21.9936 17.9498 21.9867 16.9751C21.9775 15.6788 21.4568 14.4385 20.538 13.524C19.6192 12.6096 18.3764 12.0948 17.0801 12.0918ZM17.0801 20.1493C16.4564 20.1516 15.8461 19.9687 15.3264 19.6239C14.8067 19.2791 14.401 18.7878 14.1608 18.2123C13.9205 17.6367 13.8564 17.0028 13.9767 16.3908C14.097 15.7789 14.3961 15.2163 14.8363 14.7745C15.2765 14.3327 15.8379 14.0314 16.4495 13.9089C17.061 13.7864 17.6951 13.8481 18.2716 14.0862C18.848 14.3244 19.3408 14.7282 19.6875 15.2466C20.0343 15.765 20.2194 16.3747 20.2194 16.9984C20.2102 17.8271 19.8762 18.6191 19.2891 19.204C18.702 19.7889 17.9088 20.12 17.0801 20.126V20.1493Z" fill="white"/>
<path d="M20.9759 26.9509H13.023C11.4359 26.9479 9.91464 26.316 8.79236 25.1937C7.67008 24.0715 7.03823 22.5502 7.03516 20.9631V12.9986C7.03823 11.4115 7.67008 9.89023 8.79236 8.76795C9.91464 7.64567 11.4359 7.01382 13.023 7.01074H20.9759C22.563 7.01382 24.0843 7.64567 25.2065 8.76795C26.3288 9.89023 26.9607 11.4115 26.9637 12.9986V20.9631C26.9607 22.5502 26.3288 24.0715 25.2065 25.1937C24.0843 26.316 22.563 26.9479 20.9759 26.9509ZM13.023 8.88268C11.9324 8.88575 10.8872 9.32037 10.116 10.0916C9.34479 10.8628 8.91016 11.9079 8.90709 12.9986V20.9631C8.91017 22.0527 9.34518 23.0966 10.1167 23.866C10.8883 24.6353 11.9334 25.0674 13.023 25.0674H20.9759C22.0655 25.0674 23.1106 24.6353 23.8822 23.866C24.6537 23.0966 25.0887 22.0527 25.0918 20.9631V12.9986C25.0887 11.9079 24.6541 10.8628 23.8829 10.0916C23.1116 9.32037 22.0665 8.88575 20.9759 8.88268H13.023Z" fill="white"/>
<defs>
<linearGradient id="paint0_linear_1731_11732" x1="29.0208" y1="4.97633" x2="4.97633" y2="29.0208" gradientUnits="userSpaceOnUse">
<stop stop-color="#FBE18A"/>
<stop offset="0.21" stop-color="#FCBB45"/>
<stop offset="0.38" stop-color="#F75274"/>
<stop offset="0.52" stop-color="#D53692"/>
<stop offset="0.74" stop-color="#8F39CE"/>
<stop offset="1" stop-color="#5B4FE9"/>
</linearGradient>
</defs>
</svg>
