<svg width="28" height="28" viewBox="0 0 28 28" fill="none" xmlns="http://www.w3.org/2000/svg">
<path d="M14.0004 27.7147C21.5746 27.7147 27.7147 21.5746 27.7147 14.0004C27.7147 6.42623 21.5746 0.286133 14.0004 0.286133C6.42623 0.286133 0.286133 6.42623 0.286133 14.0004C0.286133 21.5746 6.42623 27.7147 14.0004 27.7147Z" fill="url(#paint0_linear_1436_10582)"/>
<path d="M8.24998 11.4483H10.8671V19.9845H8.24998V11.4483ZM9.57263 7.23644C9.87886 7.23276 10.1792 7.32055 10.4352 7.48859C10.6913 7.65662 10.8913 7.89726 11.0098 8.17967C11.1282 8.46208 11.1597 8.77342 11.1002 9.07382C11.0406 9.37423 10.8928 9.65002 10.6756 9.8659C10.4584 10.0818 10.1816 10.2279 9.88088 10.2856C9.58011 10.3433 9.26897 10.3099 8.9873 10.1897C8.70563 10.0695 8.46624 9.86793 8.29979 9.61086C8.13335 9.3538 8.04741 9.0529 8.05299 8.7467C8.0579 8.34606 8.21988 7.96334 8.50407 7.6809C8.78826 7.39846 9.17196 7.23887 9.57263 7.23644Z" fill="white"/>
<path d="M12.5645 11.4493H15.1159V12.6125C15.3741 12.1801 15.7436 11.825 16.1858 11.5841C16.628 11.3432 17.1267 11.2254 17.6299 11.2429C20.3127 11.2429 20.8099 13.0064 20.8099 15.3047V19.9949H18.1928V15.8394C18.1928 14.9013 18.1927 13.5786 16.8138 13.5786C15.4349 13.5786 15.2191 14.6574 15.2191 15.7737V19.9949H12.5645V11.4493Z" fill="white"/>
<defs>
<linearGradient id="paint0_linear_1436_10582" x1="23.6999" y1="4.30099" x2="4.30099" y2="23.6999" gradientUnits="userSpaceOnUse">
<stop stop-color="#007AB5"/>
<stop offset="1" stop-color="#0046E5"/>
</linearGradient>
</defs>
</svg>
