<svg width="264" height="130" viewBox="0 0 264 130" fill="none" xmlns="http://www.w3.org/2000/svg">
<g clip-path="url(#clip0_181_2833)">
<path d="M64.1084 0C75.881 0 86.7513 3.17195 96.9061 9.09832C99.0591 10.3571 99.1462 11.2794 97.7835 13.2798C93.4776 19.6175 89.3398 26.0735 85.2518 32.5608C84.2562 34.1436 83.5966 34.2994 81.9042 33.346C58.8505 20.3466 30.8004 35.0161 28.3861 61.4386C27.0545 76.0083 32.6546 87.7302 44.869 95.6881C56.9527 103.559 69.64 103.534 82.1717 96.4235C84.0446 95.3641 84.6918 95.7691 85.706 97.3333C89.8189 103.677 93.9381 110.027 98.3062 116.203C99.868 118.409 99.4573 119.257 97.3168 120.584C67.2382 139.192 27.7017 129.377 9.3583 98.6607C-13.826 59.8433 8.14495 9.98322 52.3731 1.06562C56.2434 0.280428 60.1697 0.0186952 64.1084 0Z" fill="#0F0F0F"/>
<path d="M184.435 65.1714C184.106 51.2684 177.709 40.6184 164.3 35.4336C152.322 30.791 139.933 30.442 127.794 34.6858C115.648 38.9296 107.577 47.2676 104.777 60.2234C104.342 62.2362 104.79 62.9093 106.812 63.2894C113.321 64.5171 119.786 65.9628 126.263 67.3276C127.626 67.6142 128.702 67.9009 129.132 65.8506C131.62 53.9107 145.011 52.1346 152.366 56.1603C155.987 58.1358 157.916 61.8249 157.263 65.4269C156.74 68.3059 154.444 69.7704 149.926 70.5244C141.253 71.9702 132.429 72.6619 123.917 74.9427C111.249 78.3328 103.614 87.3439 102.649 99.4895C101.753 110.775 108.162 121.656 118.522 126.46C132.915 133.128 147.867 130.05 159.621 117.593C159.621 120.428 159.727 122.69 159.59 124.94C159.478 126.735 160.156 127.208 161.88 127.19C168.724 127.102 175.562 127.096 182.401 127.19C184.155 127.214 184.678 126.722 184.672 124.94C184.585 105.017 184.914 85.0817 184.435 65.1714ZM157.35 91.4381C157.188 103.908 148.614 111.436 137.644 108.731C133.039 107.591 130.556 104.755 130.289 100.343C130.015 95.7006 132.05 92.3355 136.511 90.7215C141.203 89.0264 146.23 88.8893 151.084 87.9296C151.694 87.8112 152.316 87.7614 152.926 87.6554C155.916 87.1071 157.391 88.3679 157.35 91.4381Z" fill="#0F0F0F"/>
<path d="M195.212 64.7289C195.212 45.0118 195.262 25.2946 195.15 5.57741C195.138 3.07225 195.86 2.49893 198.243 2.54879C205.498 2.70458 212.753 2.72328 220.008 2.54256C222.541 2.48024 223.281 3.06602 223.269 5.72074C223.163 36.5428 223.2 67.365 223.2 98.1871C223.2 107.005 223.132 115.829 223.25 124.647C223.275 126.735 222.622 127.227 220.637 127.196C213.176 127.084 205.709 127.059 198.249 127.208C195.891 127.252 195.132 126.722 195.144 124.192C195.262 104.369 195.206 84.5521 195.206 64.7289H195.212Z" fill="#0F0F0F"/>
<path d="M250.186 127.152C242.601 127.152 236.441 120.97 236.36 113.287C236.28 105.634 242.782 99.1156 250.386 99.2153C257.915 99.315 264.075 105.696 264 113.324C263.925 121.076 257.865 127.146 250.186 127.152Z" fill="#0F0F0F"/>
</g>
<defs>
<clipPath id="clip0_181_2833">
<rect width="264" height="130" fill="white"/>
</clipPath>
</defs>
</svg>
