<svg width="36" height="36" viewBox="0 0 36 36" fill="none" xmlns="http://www.w3.org/2000/svg">
<path d="M18 30C17.175 30 16.469 29.7065 15.882 29.1195C15.294 28.5315 15 27.825 15 27C15 26.175 15.294 25.4685 15.882 24.8805C16.469 24.2935 17.175 24 18 24C18.825 24 19.5315 24.2935 20.1195 24.8805C20.7065 25.4685 21 26.175 21 27C21 27.825 20.7065 28.5315 20.1195 29.1195C19.5315 29.7065 18.825 30 18 30ZM18 21C17.175 21 16.469 20.706 15.882 20.118C15.294 19.531 15 18.825 15 18C15 17.175 15.294 16.4685 15.882 15.8805C16.469 15.2935 17.175 15 18 15C18.825 15 19.5315 15.2935 20.1195 15.8805C20.7065 16.4685 21 17.175 21 18C21 18.825 20.7065 19.531 20.1195 20.118C19.5315 20.706 18.825 21 18 21ZM18 12C17.175 12 16.469 11.706 15.882 11.118C15.294 10.531 15 9.825 15 9C15 8.175 15.294 7.469 15.882 6.882C16.469 6.294 17.175 6 18 6C18.825 6 19.5315 6.294 20.1195 6.882C20.7065 7.469 21 8.175 21 9C21 9.825 20.7065 10.531 20.1195 11.118C19.5315 11.706 18.825 12 18 12Z" fill="white"/>
</svg>
