<svg width="25" height="24" viewBox="0 0 25 24" fill="none" xmlns="http://www.w3.org/2000/svg">
<path d="M4.22266 20C3.67266 20 3.20199 19.8043 2.81066 19.413C2.41866 19.021 2.22266 18.55 2.22266 18V6C2.22266 5.45 2.41866 4.97933 2.81066 4.588C3.20199 4.196 3.67266 4 4.22266 4H20.2227C20.7727 4 21.2437 4.196 21.6357 4.588C22.027 4.97933 22.2227 5.45 22.2227 6V18C22.2227 18.55 22.027 19.021 21.6357 19.413C21.2437 19.8043 20.7727 20 20.2227 20H4.22266ZM12.2227 13L4.22266 8V18H20.2227V8L12.2227 13ZM12.2227 11L20.2227 6H4.22266L12.2227 11ZM4.22266 8V6V18V8Z" fill="#191919"/>
</svg>
