<svg width="17" height="21" viewBox="0 0 17 21" fill="none" xmlns="http://www.w3.org/2000/svg">
<path d="M9 20.5L8.75 17.5H8.5C6.13333 17.5 4.125 16.675 2.475 15.025C0.825 13.375 0 11.3667 0 9C0 6.63333 0.825 4.625 2.475 2.975C4.125 1.325 6.13333 0.5 8.5 0.5C9.68333 0.5 10.7873 0.720667 11.812 1.162C12.8373 1.604 13.7377 2.21233 14.513 2.987C15.2877 3.76233 15.8957 4.66233 16.337 5.687C16.779 6.71233 17 7.81667 17 9C17 10.25 16.796 11.45 16.388 12.6C15.9793 13.75 15.421 14.8167 14.713 15.8C14.0043 16.7833 13.1627 17.675 12.188 18.475C11.2127 19.275 10.15 19.95 9 20.5ZM11 16.85C12.1833 15.85 13.1457 14.6793 13.887 13.338C14.629 11.996 15 10.55 15 9C15 7.18333 14.371 5.64567 13.113 4.387C11.8543 3.129 10.3167 2.5 8.5 2.5C6.68333 2.5 5.146 3.129 3.888 4.387C2.62933 5.64567 2 7.18333 2 9C2 10.8167 2.62933 12.3543 3.888 13.613C5.146 14.871 6.68333 15.5 8.5 15.5H11V16.85ZM8.475 14.475C8.75833 14.475 9 14.375 9.2 14.175C9.4 13.975 9.5 13.7333 9.5 13.45C9.5 13.1667 9.4 12.925 9.2 12.725C9 12.525 8.75833 12.425 8.475 12.425C8.19167 12.425 7.95 12.525 7.75 12.725C7.55 12.925 7.45 13.1667 7.45 13.45C7.45 13.7333 7.55 13.975 7.75 14.175C7.95 14.375 8.19167 14.475 8.475 14.475ZM7.75 11.3H9.25C9.25 10.8 9.3 10.45 9.4 10.25C9.5 10.05 9.81667 9.68333 10.35 9.15C10.65 8.85 10.9 8.525 11.1 8.175C11.3 7.825 11.4 7.45 11.4 7.05C11.4 6.2 11.1127 5.56233 10.538 5.137C9.96267 4.71233 9.28333 4.5 8.5 4.5C7.76667 4.5 7.15 4.704 6.65 5.112C6.15 5.52067 5.8 6.01667 5.6 6.6L7 7.15C7.08333 6.86667 7.24167 6.58733 7.475 6.312C7.70833 6.03733 8.05 5.9 8.5 5.9C8.95 5.9 9.28767 6.025 9.513 6.275C9.73767 6.525 9.85 6.8 9.85 7.1C9.85 7.38333 9.76667 7.63733 9.6 7.862C9.43333 8.08733 9.23333 8.31667 9 8.55C8.41667 9.05 8.06267 9.44567 7.938 9.737C7.81267 10.029 7.75 10.55 7.75 11.3Z" fill="#0057CD"/>
</svg>
