<svg width="18" height="20" viewBox="0 0 18 20" fill="none" xmlns="http://www.w3.org/2000/svg">
<path d="M15 19.5C14.1667 19.5 13.4583 19.2083 12.875 18.625C12.2917 18.0417 12 17.3333 12 16.5C12 16.3833 12.0083 16.2623 12.025 16.137C12.0417 16.0123 12.0667 15.9 12.1 15.8L5.05 12.7C4.76667 12.95 4.45 13.1457 4.1 13.287C3.75 13.429 3.38333 13.5 3 13.5C2.16667 13.5 1.45833 13.2083 0.875 12.625C0.291667 12.0417 0 11.3333 0 10.5C0 9.66667 0.291667 8.95833 0.875 8.375C1.45833 7.79167 2.16667 7.5 3 7.5C3.38333 7.5 3.75 7.57067 4.1 7.712C4.45 7.854 4.76667 8.05 5.05 8.3L12.1 4.2C12.0667 4.1 12.0417 3.98767 12.025 3.863C12.0083 3.73767 12 3.61667 12 3.5C12 2.66667 12.2917 1.95833 12.875 1.375C13.4583 0.791667 14.1667 0.5 15 0.5C15.8333 0.5 16.5417 0.791667 17.125 1.375C17.7083 1.95833 18 2.66667 18 3.5C18 4.33333 17.7083 5.04167 17.125 5.625C16.5417 6.20833 15.8333 6.5 15 6.5C14.6167 6.5 14.25 6.429 13.9 6.287C13.55 6.14567 13.2333 5.95 12.95 5.7L5.9 9.8C5.93333 9.9 5.95833 10.0123 5.975 10.137C5.99167 10.2623 6 10.3833 6 10.5C6 10.6167 5.99167 10.7373 5.975 10.862C5.95833 10.9873 5.93333 11.1 5.9 11.2L12.95 14.3C13.2333 14.05 13.55 13.854 13.9 13.712C14.25 13.5707 14.6167 13.5 15 13.5C15.8333 13.5 16.5417 13.7917 17.125 14.375C17.7083 14.9583 18 15.6667 18 16.5C18 17.3333 17.7083 18.0417 17.125 18.625C16.5417 19.2083 15.8333 19.5 15 19.5ZM15 4.5C15.2833 4.5 15.5207 4.40433 15.712 4.213C15.904 4.021 16 3.78333 16 3.5C16 3.21667 15.904 2.979 15.712 2.787C15.5207 2.59567 15.2833 2.5 15 2.5C14.7167 2.5 14.4793 2.59567 14.288 2.787C14.096 2.979 14 3.21667 14 3.5C14 3.78333 14.096 4.021 14.288 4.213C14.4793 4.40433 14.7167 4.5 15 4.5ZM3 11.5C3.28333 11.5 3.521 11.404 3.713 11.212C3.90433 11.0207 4 10.7833 4 10.5C4 10.2167 3.90433 9.979 3.713 9.787C3.521 9.59567 3.28333 9.5 3 9.5C2.71667 9.5 2.479 9.59567 2.287 9.787C2.09567 9.979 2 10.2167 2 10.5C2 10.7833 2.09567 11.0207 2.287 11.212C2.479 11.404 2.71667 11.5 3 11.5ZM15 17.5C15.2833 17.5 15.5207 17.404 15.712 17.212C15.904 17.0207 16 16.7833 16 16.5C16 16.2167 15.904 15.9793 15.712 15.788C15.5207 15.596 15.2833 15.5 15 15.5C14.7167 15.5 14.4793 15.596 14.288 15.788C14.096 15.9793 14 16.2167 14 16.5C14 16.7833 14.096 17.0207 14.288 17.212C14.4793 17.404 14.7167 17.5 15 17.5Z" fill="#0057CD"/>
</svg>
