<svg width="28" height="28" viewBox="0 0 28 28" fill="none" xmlns="http://www.w3.org/2000/svg">
<path d="M13.9994 27.8563C21.5736 27.8563 27.7137 21.7162 27.7137 14.142C27.7137 6.56783 21.5736 0.427734 13.9994 0.427734C6.42525 0.427734 0.285156 6.56783 0.285156 14.142C0.285156 21.7162 6.42525 27.8563 13.9994 27.8563Z" fill="url(#paint0_linear_1436_10566)"/>
<path fill-rule="evenodd" clip-rule="evenodd" d="M17.7135 11.6283C18.8821 12.4695 20.2885 12.9164 21.7283 12.904V10.0899C21.4476 10.087 21.1679 10.0556 20.8935 9.99607V12.2474C19.4664 12.2518 18.0744 11.8053 16.9161 10.9716V16.75C16.9141 17.7068 16.6527 18.6452 16.1597 19.4652C15.6667 20.2852 14.9605 20.9561 14.1164 21.4066C13.2722 21.857 12.3217 22.0702 11.3661 22.0232C10.4104 21.9763 9.48539 21.6711 8.68945 21.1401C9.42447 21.887 10.3648 22.3989 11.3911 22.6107C12.4174 22.8225 13.4835 22.7248 14.4542 22.3299C15.4249 21.935 16.2564 21.2607 16.8434 20.3925C17.4303 19.5244 17.7462 18.5015 17.751 17.4536V11.6283H17.7135ZM18.7453 8.74846C18.1541 8.10811 17.7913 7.29017 17.7135 6.4221V6.04688H16.9161C17.0133 6.60072 17.2265 7.12775 17.5417 7.59336C17.857 8.05896 18.2672 8.45262 18.7453 8.74846ZM10.4717 18.9169C10.1692 18.5074 10.0036 18.0129 9.99841 17.5038C9.9932 16.9946 10.1487 16.4969 10.4428 16.0812C10.7368 15.6656 11.1545 15.3533 11.6363 15.1887C12.1181 15.0242 12.6396 15.0158 13.1264 15.1647V12.2286C12.8499 12.1897 12.5707 12.174 12.2916 12.1817V14.4518C12.0547 14.3778 11.808 14.3399 11.5599 14.3392C11.0168 14.3411 10.4901 14.5256 10.0645 14.8631C9.63895 15.2005 9.33927 15.6713 9.21367 16.1997C9.08807 16.7281 9.14384 17.2834 9.37204 17.7762C9.60023 18.2691 9.98757 18.6709 10.4717 18.9169Z" fill="#EE1D52"/>
<path fill-rule="evenodd" clip-rule="evenodd" d="M16.8787 10.9341C18.037 11.7678 19.429 12.2143 20.8561 12.2099V9.95855C20.0445 9.78261 19.3073 9.35992 18.7454 8.74846C18.2673 8.45262 17.8571 8.05896 17.5418 7.59336C17.2266 7.12775 17.0134 6.60072 16.9162 6.04688H14.8338V17.4629C14.7695 17.9815 14.5621 18.4718 14.2349 18.8791C13.9077 19.2865 13.4735 19.5947 12.9811 19.7692C12.4886 19.9437 11.9573 19.9777 11.4466 19.8674C10.9359 19.757 10.466 19.5066 10.0896 19.1443C9.7131 18.782 9.44495 18.3221 9.31512 17.816C9.18529 17.3099 9.19891 16.7776 9.35447 16.2789C9.51002 15.7801 9.80137 15.3344 10.1959 14.9919C10.5904 14.6493 11.0725 14.4233 11.5881 14.3392C11.8364 14.3384 12.0833 14.3764 12.3198 14.4518V12.1817C11.3137 12.1059 10.3084 12.3398 9.43909 12.852C8.56975 13.3641 7.87796 14.13 7.4566 15.0468C7.03524 15.9636 6.90449 16.9874 7.08193 17.9806C7.25937 18.9739 7.7365 19.8891 8.44923 20.6033C9.16195 21.3175 10.0761 21.7965 11.069 21.976C12.0619 22.1554 13.086 22.0268 14.0036 21.6073C14.9213 21.1878 15.6886 20.4976 16.2025 19.6293C16.7165 18.7611 16.9524 17.7563 16.8787 16.75V10.9341Z" fill="white"/>
<path fill-rule="evenodd" clip-rule="evenodd" d="M20.8571 9.95837V9.34863C20.1111 9.35089 19.3796 9.14282 18.7465 8.74828C19.3063 9.3622 20.0444 9.78536 20.8571 9.95837ZM16.9173 6.04669C16.9173 5.94351 16.9173 5.83094 16.9173 5.71838V5.35254H14.0374V16.7498C14.0374 17.3892 13.7835 18.0024 13.3313 18.4545C12.8792 18.9066 12.266 19.1606 11.6267 19.1606C11.2494 19.1602 10.8772 19.0736 10.5385 18.9074C10.8461 19.3047 11.2697 19.5964 11.7506 19.7421C12.2314 19.8878 12.7457 19.8802 13.2221 19.7204C13.6985 19.5606 14.1133 19.2565 14.409 18.8502C14.7047 18.444 14.8666 17.9558 14.8723 17.4534V6.04669H16.9173ZM12.349 12.1815V11.5343C12.1054 11.5156 11.8608 11.5156 11.6173 11.5343C10.4838 11.5306 9.37925 11.8923 8.46753 12.5658C7.55581 13.2393 6.88545 14.1887 6.55588 15.2733C6.2263 16.3578 6.25507 17.5197 6.63791 18.5866C7.02074 19.6535 7.73725 20.5686 8.68118 21.1962C7.94677 20.4616 7.44531 19.5267 7.23953 18.5086C7.03375 17.4904 7.1328 16.4342 7.52427 15.472C7.91574 14.5099 8.58226 13.6845 9.44042 13.0992C10.2986 12.514 11.3103 12.1947 12.349 12.1815Z" fill="#69C9D0"/>
<defs>
<linearGradient id="paint0_linear_1436_10566" x1="4.30001" y1="4.44259" x2="23.6989" y2="23.8415" gradientUnits="userSpaceOnUse">
<stop stop-color="#22004A"/>
<stop offset="0.96" stop-color="#020003"/>
<stop offset="1"/>
</linearGradient>
</defs>
</svg>
