<svg width="25" height="24" viewBox="0 0 25 24" fill="none" xmlns="http://www.w3.org/2000/svg">
<path d="M20.5 8V6H18.4444V4H20.5V2H22.5556V4H24.6111V6H22.5556V8H20.5ZM4.05556 22C3.49028 22 3.00654 21.8043 2.60433 21.413C2.20144 21.021 2 20.55 2 20V8C2 7.45 2.20144 6.97933 2.60433 6.588C3.00654 6.196 3.49028 6 4.05556 6H7.29306L9.19444 4H15.3611V6H10.0938L8.21806 8H4.05556V20H20.5V11H22.5556V20C22.5556 20.55 22.3545 21.021 21.9523 21.413C21.5494 21.8043 21.0653 22 20.5 22H4.05556ZM12.2778 18.5C13.5625 18.5 14.6547 18.0627 15.5543 17.188C16.4533 16.3127 16.9028 15.25 16.9028 14C16.9028 12.75 16.4533 11.6873 15.5543 10.812C14.6547 9.93733 13.5625 9.5 12.2778 9.5C10.9931 9.5 9.90087 9.93733 9.00122 10.812C8.10226 11.6873 7.65278 12.75 7.65278 14C7.65278 15.25 8.10226 16.3127 9.00122 17.188C9.90087 18.0627 10.9931 18.5 12.2778 18.5ZM12.2778 16.5C11.5583 16.5 10.9502 16.2583 10.4535 15.775C9.95671 15.2917 9.70833 14.7 9.70833 14C9.70833 13.3 9.95671 12.7083 10.4535 12.225C10.9502 11.7417 11.5583 11.5 12.2778 11.5C12.9972 11.5 13.6053 11.7417 14.1021 12.225C14.5988 12.7083 14.8472 13.3 14.8472 14C14.8472 14.7 14.5988 15.2917 14.1021 15.775C13.6053 16.2583 12.9972 16.5 12.2778 16.5Z" fill="#398D94"/>
</svg>
