<svg width="25" height="24" viewBox="0 0 25 24" fill="none" xmlns="http://www.w3.org/2000/svg">
<path d="M4.48145 4L6.48145 8H9.48145L7.48145 4H9.48145L11.4814 8H14.4814L12.4814 4H14.4814L16.4814 8H19.4814L17.4814 4H20.4814C21.0314 4 21.5024 4.196 21.8944 4.588C22.2858 4.97933 22.4814 5.45 22.4814 6V18C22.4814 18.55 22.2858 19.021 21.8944 19.413C21.5024 19.8043 21.0314 20 20.4814 20H4.48145C3.93145 20 3.46078 19.8043 3.06945 19.413C2.67745 19.021 2.48145 18.55 2.48145 18V6C2.48145 5.45 2.67745 4.97933 3.06945 4.588C3.46078 4.196 3.93145 4 4.48145 4ZM4.48145 10V18H20.4814V10H4.48145Z" fill="#191919"/>
</svg>
