<svg width="24" height="24" viewBox="0 0 24 24" fill="none" xmlns="http://www.w3.org/2000/svg">
<path d="M12 22.5C10.1625 22.5 8.35976 22.0137 6.76312 21.0907L2.67218 22.5L3.51267 18.1681C2.19432 16.3615 1.5 14.2372 1.5 12.0005C1.5 6.2105 6.21029 1.5 12 1.5C17.7897 1.5 22.5 6.2105 22.5 12.0005C22.5 17.7904 17.7906 22.5 12 22.5Z" fill="#32BA46"/>
<path d="M12.0004 18.8595C10.8001 18.8595 9.62233 18.5419 8.57945 17.9384L5.90713 18.8595L6.45621 16.0287C5.59511 14.849 5.1416 13.4603 5.1416 11.9995C5.1416 8.21664 8.2187 5.1394 12.0014 5.1394C15.784 5.1394 18.8611 8.21664 18.8611 11.9995C18.8611 15.7823 15.784 18.8595 12.0014 18.8595H12.0004ZM8.70219 16.8168L8.90927 16.9461C9.84065 17.5299 10.9098 17.8391 12.0004 17.8391C15.2209 17.8391 17.8398 15.2201 17.8398 11.9995C17.8398 8.77887 15.2209 6.16078 12.0004 6.16078C8.77997 6.16078 6.16199 8.7798 6.16199 11.9995C6.16199 13.3095 6.59114 14.551 7.40258 15.5883L7.54594 15.772L7.2461 17.3181L8.70313 16.8159L8.70219 16.8168Z" fill="white"/>
<path d="M8.53707 9.36454C8.53707 9.36454 8.93998 8.66083 9.26793 8.62053C9.59587 8.58024 10.0185 8.58024 10.1318 8.79482C10.2462 9.00941 10.7549 10.2557 10.7549 10.2557C10.7549 10.2557 10.8421 10.4703 10.7081 10.6783C10.5741 10.8863 10.2724 11.1871 10.2724 11.1871C10.2724 11.1871 10.1047 11.4017 10.2724 11.6294C10.4401 11.8571 10.6997 12.2759 11.2375 12.8129C11.7744 13.3507 12.8051 13.733 12.8051 13.733C12.8051 13.733 12.9522 13.7527 13.0468 13.659C13.1405 13.5653 13.6503 12.929 13.6503 12.929C13.6503 12.929 13.8133 12.7182 14.086 12.8419C14.3577 12.9656 15.5336 13.5522 15.5336 13.5522C15.5336 13.5522 15.6714 13.6028 15.6714 13.8099C15.6714 14.0169 15.587 14.5258 15.4156 14.6972C15.2441 14.8697 14.7409 15.3991 13.9857 15.3991C13.2305 15.3991 11.4324 14.7844 10.4748 13.8267C9.51623 12.8681 8.66544 11.8964 8.46492 11.0119C8.26346 10.1273 8.29064 9.72718 8.538 9.36361L8.53707 9.36454Z" fill="white"/>
</svg>
